<svg width="32" height="32" viewBox="0 0 32 32" fill="none" xmlns="http://www.w3.org/2000/svg">
<path d="M26 0C27.6528 0 29.066 0.586806 30.2396 1.76042C31.4132 2.93403 32 4.34722 32 6V26C32 27.6528 31.4132 29.066 30.2396 30.2396C29.066 31.4132 27.6528 32 26 32H22.0833V19.6042H26.2292L26.8542 14.7708H22.0833V11.6875C22.0833 10.9097 22.2465 10.3264 22.5729 9.9375C22.8993 9.54861 23.5347 9.35417 24.4792 9.35417L27.0208 9.33333V5.02083C26.1458 4.89583 24.9097 4.83333 23.3125 4.83333C21.4236 4.83333 19.9132 5.38889 18.7812 6.5C17.6493 7.61111 17.0833 9.18056 17.0833 11.2083V14.7708H12.9167V19.6042H17.0833V32H6C4.34722 32 2.93403 31.4132 1.76042 30.2396C0.586806 29.066 0 27.6528 0 26V6C0 4.34722 0.586806 2.93403 1.76042 1.76042C2.93403 0.586806 4.34722 0 6 0H26Z" fill="#0531D0"/>
</svg>
