<svg width="31" height="27" viewBox="0 0 31 27" fill="none" xmlns="http://www.w3.org/2000/svg">
<path d="M26.773 3.75121H8.79013L8.61666 3.06678C8.42392 2.19224 7.99025 1.4793 7.31565 0.927963C6.64105 0.376622 5.84117 0.100952 4.916 0.100952H2.08269C1.73575 0.100952 1.44664 0.215023 1.21534 0.443164C0.984054 0.671304 0.868408 0.975492 0.868408 1.35573C0.868408 1.69794 0.984054 1.98311 1.21534 2.21126C1.44664 2.4394 1.73575 2.55347 2.08269 2.55347H4.916C5.64842 2.55347 6.07246 2.87667 6.1881 3.52307L9.02142 18.1241C9.25271 18.9226 9.70566 19.569 10.3803 20.0633C11.0549 20.5576 11.7969 20.8047 12.6064 20.8047H24.2866C24.6721 20.8047 24.9805 20.6907 25.2118 20.4625C25.4431 20.2344 25.5587 19.9492 25.5587 19.607C25.5587 18.7705 25.1347 18.3522 24.2866 18.3522H12.6064C12.0668 18.3522 11.6813 18.1241 11.45 17.6678L11.3343 17.1545H23.7084C24.4794 17.1545 25.1829 16.9263 25.8189 16.4701C26.455 16.0138 26.8887 15.4244 27.1199 14.702L30.4737 7.68664V7.40146C30.4737 6.37483 30.1171 5.50979 29.4039 4.80636C28.6908 4.10292 27.8138 3.75121 26.773 3.75121ZM11.9704 14.702H10.8717L9.25271 6.20372H11.9704V14.702ZM16.8853 14.702H14.4568V6.20372H16.8853V14.702ZM21.8581 14.702H19.3717V6.20372H21.8581V14.702ZM24.9227 13.7324V13.8464C24.807 14.2267 24.595 14.4738 24.2866 14.5879V6.20372H26.773C27.4669 6.20372 27.8716 6.52692 27.9873 7.17332L24.9227 13.7324ZM15.671 24.455C15.671 25.1394 15.4301 25.7193 14.9483 26.1946C14.4664 26.6699 13.8785 26.9075 13.1847 26.9075C12.5293 26.9075 11.9607 26.6699 11.4789 26.1946C10.997 25.7193 10.7561 25.1394 10.7561 24.455C10.7561 23.7706 10.997 23.1907 11.4789 22.7154C11.9607 22.2401 12.5293 22.0025 13.1847 22.0025C13.8785 22.0025 14.4664 22.2401 14.9483 22.7154C15.4301 23.1907 15.671 23.7706 15.671 24.455ZM25.5587 24.455C25.5587 25.1394 25.3178 25.7193 24.8359 26.1946C24.3541 26.6699 23.7662 26.9075 23.0724 26.9075C22.3785 26.9075 21.7906 26.6699 21.3088 26.1946C20.8269 25.7193 20.586 25.1394 20.586 24.455C20.586 23.7706 20.8269 23.1907 21.3088 22.7154C21.7906 22.2401 22.3785 22.0025 23.0724 22.0025C23.7662 22.0025 24.3541 22.2401 24.8359 22.7154C25.3178 23.1907 25.5587 23.7706 25.5587 24.455Z" fill="#FF8834"/>
</svg>
