<svg width="42" height="32" viewBox="0 0 42 32" fill="none" xmlns="http://www.w3.org/2000/svg">
<path d="M41.1232 4.93567C40.8792 3.98481 40.4142 3.11874 39.7732 2.42132C39.1321 1.7239 38.3368 1.21876 37.4642 0.954819C34.1885 4.56466e-05 21.02 4.58774e-05 21.02 4.58774e-05C21.02 4.58774e-05 7.87653 -0.0228575 4.5667 0.954819C3.69545 1.21992 2.90167 1.72559 2.26206 2.42295C1.62245 3.1203 1.15866 3.98576 0.915512 4.93567C0.293457 8.59189 -0.0129142 12.3036 0.000416956 16.0222C-0.00565272 19.7229 0.300671 23.4163 0.915512 27.0558C1.15945 28.0062 1.62338 28.8723 2.26276 29.5709C2.90215 30.2695 3.69551 30.7772 4.5667 31.0452C7.8424 32 21.02 32 21.02 32C21.02 32 34.1556 32 37.4642 31.0452C38.3367 30.7784 39.1317 30.2712 39.7725 29.5725C40.4133 28.8739 40.8785 28.0072 41.1232 27.0558C41.7258 23.4185 42.0199 19.7196 41.9989 16.0222C42.0199 12.3005 41.7324 8.59587 41.1232 4.93567ZM16.8135 22.8745V9.13982L27.7749 16.0222L16.8135 22.8745Z" fill="#FD0101"/>
</svg>
