<svg width="105" height="117" viewBox="0 0 105 117" fill="none" xmlns="http://www.w3.org/2000/svg">
<path d="M81.017 3.57689C81.5105 3.13501 80.6182 3.09126 81.017 3.57689V3.57689Z" fill="#F3CF7A"/>
<path d="M80.7568 3.13501C81.2503 2.71062 80.3462 2.66687 80.7568 3.13501V3.13501Z" fill="#F3CF7A"/>
<path d="M80.6189 1.72186C80.6189 1.62999 80.6189 1.52498 80.6189 1.43311C80.536 1.43311 80.4413 1.43311 80.3584 1.43311C80.3584 1.52498 80.3584 1.62999 80.3584 1.72186C80.4413 1.72186 80.536 1.72186 80.6189 1.72186Z" fill="#F3CF7A"/>
<path d="M80.0858 5.14313C79.9871 5.14313 79.9042 5.14313 79.8252 5.14313C79.8252 5.23063 79.8252 5.3225 79.8252 5.43188C79.9042 5.43188 80.0029 5.43188 80.0858 5.43188" fill="#F3CF7A"/>
<path d="M80.0858 4.29001C79.9871 4.29001 79.9042 4.29001 79.8252 4.29001C79.8252 4.38188 79.8252 4.48687 79.8252 4.57874C79.9042 4.57874 80.0029 4.57874 80.0858 4.57874" fill="#F3CF7A"/>
<path d="M79.8252 2.435C79.8252 2.52687 79.8252 2.63625 79.8252 2.72375C79.9042 2.72375 80.0029 2.72375 80.0858 2.72375C80.0858 2.63625 80.0858 2.54437 80.0858 2.435C80.0029 2.435 79.9042 2.435 79.8252 2.435Z" fill="#F3CF7A"/>
<path d="M79.1498 6.85814C79.6433 6.41626 78.7511 6.37251 79.1498 6.85814V6.85814Z" fill="#F3CF7A"/>
<path d="M79.1501 1.85748C78.9882 1.91873 78.8777 2.04123 78.8895 2.28623C79.0553 2.22498 79.1659 2.10248 79.1501 1.85748Z" fill="#F3CF7A"/>
<path d="M77.6815 9.1375C78.1749 8.69562 77.2868 8.65187 77.6815 9.1375V9.1375Z" fill="#F3CF7A"/>
<path d="M77.4208 12.8431C77.4208 12.7556 77.4208 12.6463 77.4208 12.5544C77.3378 12.5544 77.2431 12.5544 77.1602 12.5544C77.1602 12.6463 77.1602 12.7381 77.1602 12.8431C77.2431 12.8431 77.326 12.8431 77.4208 12.8431Z" fill="#F3CF7A"/>
<path d="M77.0217 18.1194C76.6822 17.6294 76.694 18.8456 77.0217 18.1194V18.1194Z" fill="#F3CF7A"/>
<path d="M76.7495 2.28626C77.0101 2.34751 76.943 1.63 76.6113 1.8575C76.6113 1.94938 76.6113 2.04126 76.6113 2.14626C76.7337 2.11563 76.7495 2.19438 76.7495 2.28626Z" fill="#F3CF7A"/>
<path d="M76.7494 9.69748C76.5836 9.75873 76.473 9.88122 76.4888 10.1262C76.777 10.2006 76.7336 9.92935 76.7494 9.69748Z" fill="#F3CF7A"/>
<path d="M76.7494 5.99188C76.5836 6.05313 76.473 6.17564 76.4888 6.41627C76.6546 6.35502 76.7612 6.23689 76.7494 5.99188Z" fill="#F3CF7A"/>
<path d="M76.2124 4.13686C76.7098 3.71249 75.8176 3.66874 76.2124 4.13686V4.13686Z" fill="#F3CF7A"/>
<path d="M75.6797 0.566864C75.7073 0.689367 75.8179 0.702492 75.8179 0.855621C75.9245 0.824995 75.9521 0.719993 76.0784 0.719993" fill="#F3CF7A"/>
<path d="M75.8178 11.5525C76.3113 11.1281 75.419 11.0844 75.8178 11.5525V11.5525Z" fill="#F3CF7A"/>
<path d="M75.8178 5.5675C75.6519 5.62875 75.5414 5.75125 75.5572 5.99187C75.719 5.93063 75.8296 5.80813 75.8178 5.5675Z" fill="#F3CF7A"/>
<path d="M75.4191 20.2588C74.9809 20.6087 75.7902 20.9412 75.4191 20.2588V20.2588Z" fill="#F3CF7A"/>
<path d="M75.4194 19.97C75.68 20.0312 75.6089 19.3181 75.2812 19.5456C75.2812 19.6375 75.2812 19.7425 75.2812 19.8344C75.4036 19.8037 75.4036 19.8781 75.4194 19.97Z" fill="#F3CF7A"/>
<path d="M75.4188 5.14313C74.9925 5.47563 75.8847 5.72063 75.4188 5.14313V5.14313Z" fill="#F3CF7A"/>
<path d="M74.8822 23.54C75.3757 23.1025 74.4835 23.0544 74.8822 23.54V23.54Z" fill="#F3CF7A"/>
<path d="M75.0203 20.6831C75.0203 20.5956 75.0203 20.4863 75.0203 20.3944C74.9256 20.3944 74.8427 20.3944 74.7598 20.3944C74.7598 20.4863 74.7598 20.5956 74.7598 20.6831C74.8427 20.6831 74.9256 20.6831 75.0203 20.6831Z" fill="#F3CF7A"/>
<path d="M74.7478 23.54C74.582 23.6013 74.4714 23.7237 74.4833 23.9687C74.7715 24.0256 74.7478 23.7675 74.7478 23.54Z" fill="#F3CF7A"/>
<path d="M74.3489 20.8231C74.7476 20.7312 74.2226 20.5169 74.3489 20.2456C74.0173 20.2762 74.3055 20.7444 74.3489 20.8231Z" fill="#F3CF7A"/>
<path d="M74.3494 1.72186C74.3494 1.62999 74.3494 1.52498 74.3494 1.43311C74.2665 1.43311 74.1718 1.43311 74.0889 1.43311C74.0889 1.52498 74.0889 1.62999 74.0889 1.72186C74.1718 1.72186 74.2665 1.72186 74.3494 1.72186Z" fill="#F3CF7A"/>
<path d="M74.0884 21.2606C74.349 21.3219 74.2779 20.6087 73.9502 20.8362C73.9502 20.9281 73.9502 21.02 73.9502 21.125C74.0607 21.0944 74.0726 21.1731 74.0884 21.2606Z" fill="#F3CF7A"/>
<path d="M74.0887 17.4019C74.0887 17.31 74.0887 17.205 74.0887 17.1131C74.0058 17.1131 73.9071 17.1131 73.8281 17.1131C73.8281 17.205 73.8281 17.31 73.8281 17.4019C73.9071 17.4019 73.99 17.4019 74.0887 17.4019Z" fill="#F3CF7A"/>
<path d="M73.4139 26.9612C73.331 26.9612 73.2362 26.9612 73.1533 26.9612C73.1533 27.0531 73.1533 27.1581 73.1533 27.25C73.2362 27.25 73.331 27.25 73.4139 27.25" fill="#F3CF7A"/>
<path d="M73.2908 21.6894C73.2908 21.5975 73.2908 21.4881 73.2908 21.4006C73.2079 21.4006 73.1132 21.4006 73.0303 21.4006C73.0303 21.4881 73.0303 21.58 73.0303 21.6894C73.1132 21.6894 73.1961 21.6894 73.2908 21.6894Z" fill="#F3CF7A"/>
<path d="M73.1528 18.9681C73.4134 19.0294 73.3462 18.3162 73.0186 18.5437C73.0186 18.6356 73.0186 18.7231 73.0186 18.8325C73.1252 18.8019 73.1409 18.8938 73.1528 18.9681Z" fill="#F3CF7A"/>
<path d="M73.0184 19.97C72.7025 20.0181 72.7144 20.4119 72.4814 20.5475C72.6749 20.915 72.9907 20.2456 73.0184 19.97Z" fill="#F3CF7A"/>
<path d="M72.4823 24.9706C72.4823 24.8788 72.4823 24.7869 72.4823 24.6819C72.3994 24.6819 72.3046 24.6819 72.2217 24.6819C72.2217 24.7738 72.2217 24.8788 72.2217 24.9706C72.3046 24.9706 72.3994 24.9706 72.4823 24.9706Z" fill="#F3CF7A"/>
<path d="M72.2215 25.395C72.2215 25.3031 72.2215 25.1981 72.2215 25.1062C72.1386 25.1062 72.0438 25.1062 71.9609 25.1062C71.9609 25.1981 71.9609 25.29 71.9609 25.395C72.0438 25.395 72.1267 25.395 72.2215 25.395Z" fill="#F3CF7A"/>
<path d="M71.8228 19.5456C72.1821 19.9087 71.657 19.97 71.6847 20.3944C72.0558 20.5343 72.344 19.4713 71.8228 19.5456Z" fill="#F3CF7A"/>
<path d="M71.5506 18.9681C71.5506 18.8763 71.5506 18.7713 71.5506 18.6794C71.4677 18.6794 71.369 18.6794 71.29 18.6794C71.29 18.7713 71.29 18.8763 71.29 18.9681C71.369 18.9681 71.4677 18.9681 71.5506 18.9681Z" fill="#F3CF7A"/>
<path d="M71.4124 17.6906C70.9861 18.0275 71.894 18.2681 71.4124 17.6906V17.6906Z" fill="#F3CF7A"/>
<path d="M71.4125 28.3875C71.2466 28.4487 71.1361 28.5712 71.1519 28.8119C71.4401 28.8906 71.3967 28.615 71.4125 28.3875Z" fill="#F3CF7A"/>
<path d="M71.412 25.9594C71.412 25.8675 71.412 25.7756 71.412 25.6706C71.329 25.6706 71.2343 25.6706 71.1514 25.6706C71.1514 25.7581 71.1514 25.8675 71.1514 25.9594C71.2343 25.9594 71.329 25.9594 71.412 25.9594Z" fill="#F3CF7A"/>
<path d="M71.1512 28.2519C71.1512 28.16 71.1512 28.0681 71.1512 27.9631C71.0683 27.9631 70.9735 27.9631 70.8906 27.9631C70.8906 28.055 70.8906 28.16 70.8906 28.2519C70.9735 28.2519 71.0683 28.2519 71.1512 28.2519Z" fill="#F3CF7A"/>
<path d="M71.1517 25.1062C70.9859 25.1675 70.8754 25.29 70.8911 25.5306C71.057 25.4694 71.1636 25.3512 71.1517 25.1062Z" fill="#F3CF7A"/>
<path d="M71.1516 24.5462C71.0964 24.3625 70.9858 24.2575 70.7529 24.2575C70.8082 24.4238 70.9187 24.5462 71.1516 24.5462Z" fill="#F3CF7A"/>
<path d="M71.0135 18.1194C71.0135 18.0275 71.0135 17.9356 71.0135 17.8306C70.9306 17.8306 70.8358 17.8306 70.7529 17.8306C70.7529 17.9181 70.7529 18.0275 70.7529 18.1194C70.8358 18.1194 70.9306 18.1194 71.0135 18.1194Z" fill="#F3CF7A"/>
<path d="M70.891 29.5294C70.5318 29.0437 70.5594 30.2556 70.891 29.5294V29.5294Z" fill="#F3CF7A"/>
<path d="M70.8907 11.2813C70.7683 10.9006 70.2985 11.3994 70.6301 11.57C70.7683 11.5219 70.713 11.2813 70.8907 11.2813Z" fill="#F3CF7A"/>
<path d="M70.7527 17.2663C70.5869 17.3275 70.4803 17.45 70.4921 17.6906C70.6422 17.6294 70.7527 17.5113 70.7527 17.2663Z" fill="#F3CF7A"/>
<path d="M70.6145 25.395C70.2711 24.9094 70.2987 26.1257 70.6145 25.395V25.395Z" fill="#F3CF7A"/>
<path d="M70.4804 18.9681C70.4804 18.8763 70.4804 18.7713 70.4804 18.6794C70.3974 18.6794 70.2987 18.6794 70.2158 18.6794C70.2158 18.7713 70.2158 18.8763 70.2158 18.9681C70.2987 18.9681 70.3974 18.9681 70.4804 18.9681Z" fill="#F3CF7A"/>
<path d="M70.4804 17.1131C70.5199 16.8856 70.354 16.8725 70.3422 16.6887C70.0935 16.6275 70.1646 17.3406 70.4804 17.1131Z" fill="#F3CF7A"/>
<path d="M70.2163 29.8181C70.4808 29.8794 70.4097 29.1619 70.082 29.3894C70.082 29.4813 70.082 29.5906 70.082 29.6781C70.2044 29.6475 70.2044 29.7263 70.2163 29.8181Z" fill="#F3CF7A"/>
<path d="M70.3543 28.8119C70.3543 28.6762 70.3543 28.5231 70.3543 28.3875C70.2714 28.3875 70.1767 28.3875 70.0938 28.3875C70.0938 28.5231 70.0938 28.6762 70.0938 28.8119C70.1767 28.8119 70.2596 28.8119 70.3543 28.8119Z" fill="#F3CF7A"/>
<path d="M70.3543 16.1287C70.3543 16.0369 70.3543 15.9275 70.3543 15.84C70.2714 15.84 70.1767 15.84 70.0938 15.84C70.0938 15.9275 70.0938 16.0194 70.0938 16.1287C70.1767 16.1287 70.2596 16.1287 70.3543 16.1287Z" fill="#F3CF7A"/>
<path d="M70.2163 15.2625C70.4808 15.3194 70.4097 14.6063 70.082 14.8338C70.082 14.9256 70.082 15.0175 70.082 15.1225C70.2044 15.0919 70.2044 15.1837 70.2163 15.2625Z" fill="#F3CF7A"/>
<path d="M69.8211 4.71437C69.8211 4.62687 69.8211 4.5175 69.8211 4.42563C69.7382 4.42563 69.6435 4.42563 69.5605 4.42563C69.5605 4.5175 69.5605 4.62687 69.5605 4.71437C69.6435 4.71437 69.7224 4.71437 69.8211 4.71437Z" fill="#F3CF7A"/>
<path d="M69.284 33.0994C69.7774 32.4606 68.9129 32.5525 69.284 33.0994V33.0994Z" fill="#F3CF7A"/>
<path d="M69.2842 30.2425C69.7777 29.8181 68.8736 29.7568 69.2842 30.2425V30.2425Z" fill="#F3CF7A"/>
<path d="M69.4219 26.9612C69.0114 27.2806 69.5719 27.8713 69.4219 26.9612V26.9612Z" fill="#F3CF7A"/>
<path d="M69.2844 25.5306C69.3279 25.5175 69.5332 25.2287 69.4226 25.1062C69.3279 25.0144 69.0515 25.6706 69.2844 25.5306Z" fill="#F3CF7A"/>
<path d="M69.0121 32.5219C69.5056 32.0975 68.6134 32.0494 69.0121 32.5219V32.5219Z" fill="#F3CF7A"/>
<path d="M69.146 28.6762C69.146 28.5844 69.146 28.4794 69.146 28.3875C68.8578 28.3263 68.8855 28.5844 68.8855 28.8119C68.996 28.7856 69.0118 28.6762 69.146 28.6762Z" fill="#F3CF7A"/>
<path d="M69.1463 25.9594C69.1463 25.8675 69.1463 25.7756 69.1463 25.6706C69.0673 25.6706 68.9686 25.6706 68.8857 25.6706C68.8857 25.7581 68.8857 25.8675 68.8857 25.9594C68.9686 25.9594 69.0673 25.9594 69.1463 25.9594Z" fill="#F3CF7A"/>
<path d="M69.1463 23.2512C69.1463 23.1156 69.1463 22.9625 69.1463 22.8269C69.0673 22.8269 68.9686 22.8269 68.8857 22.8269C68.8857 22.9625 68.8857 23.1156 68.8857 23.2512C68.9686 23.2512 69.0673 23.2512 69.1463 23.2512Z" fill="#F3CF7A"/>
<path d="M68.8855 28.2519C68.8855 28.16 68.8855 28.0681 68.8855 27.9631C68.8026 27.9631 68.7079 27.9631 68.625 27.9631C68.625 28.055 68.625 28.16 68.625 28.2519C68.7079 28.2519 68.7908 28.2519 68.8855 28.2519Z" fill="#F3CF7A"/>
<path d="M68.8855 26.5369C68.8855 26.445 68.8855 26.3356 68.8855 26.2481C68.8026 26.2481 68.7079 26.2481 68.625 26.2481C68.625 26.3356 68.625 26.4275 68.625 26.5369C68.7079 26.5369 68.7908 26.5369 68.8855 26.5369Z" fill="#F3CF7A"/>
<path d="M68.6131 30.6669C68.6131 30.575 68.6131 30.4831 68.6131 30.3781C68.5144 30.3781 68.4354 30.3781 68.3525 30.3781C68.3525 30.47 68.3525 30.5619 68.3525 30.6669C68.4354 30.6669 68.5302 30.6669 68.6131 30.6669Z" fill="#F3CF7A"/>
<path d="M68.4908 1.8575C68.9843 1.41998 68.0762 1.37185 68.4908 1.8575V1.8575Z" fill="#F3CF7A"/>
<path d="M68.4901 22.2494C68.4901 22.1575 68.4901 22.0656 68.4901 21.9606C68.4072 21.9606 68.3085 21.9606 68.2295 21.9606C68.2295 22.0525 68.2295 22.1444 68.2295 22.2494C68.3085 22.2494 68.3914 22.2494 68.4901 22.2494Z" fill="#F3CF7A"/>
<path d="M68.3528 26.2481C68.0093 25.7581 68.0212 26.9744 68.3528 26.2481V26.2481Z" fill="#F3CF7A"/>
<path d="M68.2141 24.2575C67.7759 24.59 68.5851 24.94 68.2141 24.2575V24.2575Z" fill="#F3CF7A"/>
<path d="M68.0763 27.3856C68.1198 27.3725 68.325 27.0837 68.2145 26.9612C68.1316 26.8694 67.8434 27.5212 68.0763 27.3856Z" fill="#F3CF7A"/>
<path d="M67.6772 29.3894C67.9417 29.4506 67.8706 28.7375 67.543 28.965C67.543 29.0569 67.543 29.1619 67.543 29.2538C67.6654 29.2231 67.6772 29.3019 67.6772 29.3894Z" fill="#F3CF7A"/>
<path d="M67.6773 13.8319C68.1747 13.4075 67.2825 13.3594 67.6773 13.8319V13.8319Z" fill="#F3CF7A"/>
<path d="M67.6776 25.5306C67.6776 25.4388 67.6776 25.3338 67.6776 25.2419C67.5986 25.2419 67.4999 25.2419 67.417 25.2419C67.417 25.3338 67.417 25.4388 67.417 25.5306C67.4999 25.5306 67.5986 25.5306 67.6776 25.5306Z" fill="#F3CF7A"/>
<path d="M67.4169 12.13C66.9945 12.4669 67.8867 12.7075 67.4169 12.13V12.13Z" fill="#F3CF7A"/>
<path d="M67.4168 20.3944C67.4168 20.3069 67.4168 20.215 67.4168 20.1056C67.3379 20.1056 67.2392 20.1056 67.1562 20.1056C67.1562 20.1975 67.1562 20.2894 67.1562 20.3944C67.2392 20.3944 67.3221 20.3944 67.4168 20.3944Z" fill="#F3CF7A"/>
<path d="M67.0224 24.2575C66.596 24.59 67.4882 24.835 67.0224 24.2575V24.2575Z" fill="#F3CF7A"/>
<path d="M67.0218 15.2625C67.077 15.0175 66.9112 14.9869 66.7612 14.9738C66.7889 15.0919 66.706 15.1094 66.623 15.1094C66.6349 15.2931 66.856 15.245 67.0218 15.2625Z" fill="#F3CF7A"/>
<path d="M66.7455 26.9612C67.239 26.5369 66.3467 26.4756 66.7455 26.9612V26.9612Z" fill="#F3CF7A"/>
<path d="M66.8841 23.68C66.7183 23.7369 66.6078 23.8594 66.6236 24.1044C66.8959 24.1788 66.8683 23.9075 66.8841 23.68Z" fill="#F3CF7A"/>
<path d="M66.8836 23.2513C66.8836 23.1637 66.8836 23.0719 66.8836 22.9625C66.8007 22.9625 66.7059 22.9625 66.623 22.9625C66.623 23.0544 66.623 23.1462 66.623 23.2513C66.7059 23.2513 66.7888 23.2513 66.8836 23.2513Z" fill="#F3CF7A"/>
<path d="M66.6229 30.2425C66.6229 30.1506 66.6229 30.0587 66.6229 29.9537C66.54 29.9537 66.4452 29.9537 66.3623 29.9537C66.3623 30.0456 66.3623 30.1506 66.3623 30.2425C66.4452 30.2425 66.5281 30.2425 66.6229 30.2425Z" fill="#F3CF7A"/>
<path d="M66.6229 28.8119C66.4452 28.9037 66.3741 29.1181 66.3623 29.3894C66.7452 29.5294 66.5794 29.0744 66.6229 28.8119Z" fill="#F3CF7A"/>
<path d="M66.6229 22.6737C66.6229 22.5862 66.6229 22.4769 66.6229 22.385C66.3347 22.3281 66.3741 22.5862 66.3623 22.8137C66.4571 22.7962 66.4847 22.6737 66.6229 22.6737Z" fill="#F3CF7A"/>
<path d="M66.6229 14.8338C66.6229 14.7463 66.6229 14.6369 66.6229 14.545C66.54 14.545 66.4452 14.545 66.3623 14.545C66.3623 14.6369 66.3623 14.7288 66.3623 14.8338C66.4452 14.8338 66.5281 14.8338 66.6229 14.8338Z" fill="#F3CF7A"/>
<path d="M66.4852 36.3806C66.4852 36.2887 66.4852 36.1837 66.4852 36.0919C66.4023 36.0919 66.3075 36.0919 66.2246 36.0919C66.2246 36.1837 66.2246 36.2756 66.2246 36.3806C66.3075 36.3806 66.3904 36.3806 66.4852 36.3806Z" fill="#F3CF7A"/>
<path d="M66.347 29.665C66.0035 29.1794 66.0311 30.4088 66.347 29.665V29.665Z" fill="#F3CF7A"/>
<path d="M66.2124 14.4094C66.4729 14.4706 66.4019 13.7575 66.0742 13.985C66.0742 14.0769 66.0742 14.1687 66.0742 14.2737C66.1966 14.2431 66.2124 14.3175 66.2124 14.4094Z" fill="#F3CF7A"/>
<path d="M66.2122 12.9831C66.1569 12.7994 66.0464 12.6944 65.8135 12.6944C65.8687 12.8737 65.9911 12.9962 66.2122 12.9831Z" fill="#F3CF7A"/>
<path d="M65.8138 28.8119C65.6756 28.6762 65.7703 28.2825 65.415 28.3875C65.5532 28.5231 65.4545 28.9212 65.8138 28.8119Z" fill="#F3CF7A"/>
<path d="M65.5533 26.1081C66.0468 25.6706 65.1387 25.6225 65.5533 26.1081V26.1081Z" fill="#F3CF7A"/>
<path d="M65.4154 14.8337C65.9089 14.4094 65.0167 14.3656 65.4154 14.8337V14.8337Z" fill="#F3CF7A"/>
<path d="M64.4837 27.25C64.1402 26.7644 64.1678 27.9762 64.4837 27.25V27.25Z" fill="#F3CF7A"/>
<path d="M63.6861 21.5363C63.2479 21.8862 64.152 22.1137 63.6861 21.5363V21.5363Z" fill="#F3CF7A"/>
<path d="M63.4099 10.415C62.9875 10.7475 63.8916 10.9925 63.4099 10.415V10.415Z" fill="#F3CF7A"/>
<path d="M62.7547 27.5388C62.7547 27.4469 62.7547 27.355 62.7547 27.25C62.6718 27.25 62.5731 27.25 62.4941 27.25C62.4941 27.3419 62.4941 27.4294 62.4941 27.5388C62.5731 27.5388 62.656 27.5388 62.7547 27.5388Z" fill="#F3CF7A"/>
<path d="M62.478 25.6838C62.6834 25.7275 62.6715 24.9094 62.3398 25.2594C62.3951 25.1982 62.4938 25.6838 62.478 25.6838Z" fill="#F3CF7A"/>
<path d="M62.3551 13.1319C61.9168 13.4687 62.821 13.6962 62.3551 13.1319V13.1319Z" fill="#F3CF7A"/>
<path d="M62.0793 12.5544C61.6411 12.9044 62.4504 13.2413 62.0793 12.5544V12.5544Z" fill="#F3CF7A"/>
<path d="M61.4236 13.1319C61.2578 13.1931 61.1472 13.3156 61.1591 13.5606C61.3131 13.4994 61.4236 13.3769 61.4236 13.1319Z" fill="#F3CF7A"/>
<path d="M61.147 27.0969C61.3522 27.1406 61.3404 26.3225 61.0088 26.6725C61.0641 26.6244 61.1588 27.11 61.147 27.0969Z" fill="#F3CF7A"/>
<path d="M60.8865 26.1081C60.3931 26.5369 61.2852 26.5806 60.8865 26.1081V26.1081Z" fill="#F3CF7A"/>
<path d="M60.8867 13.985C61.3802 13.5431 60.4761 13.4994 60.8867 13.985V13.985Z" fill="#F3CF7A"/>
<path d="M60.6101 38.66C60.6101 38.5681 60.6101 38.4763 60.6101 38.3713C60.5312 38.3713 60.4325 38.3713 60.3496 38.3713C60.3496 38.4631 60.3496 38.5681 60.3496 38.66C60.4325 38.66 60.5312 38.66 60.6101 38.66Z" fill="#F3CF7A"/>
<path d="M60.3498 40.6506C59.9116 41.0006 60.7209 41.3331 60.3498 40.6506V40.6506Z" fill="#F3CF7A"/>
<path d="M60.2162 9.40875C60.0503 9.47 59.9398 9.5925 59.9556 9.8375C60.1175 9.78938 60.228 9.67125 60.2162 9.40875Z" fill="#F3CF7A"/>
<path d="M58.0879 38.9488C58.5813 38.5069 57.6773 38.4631 58.0879 38.9488V38.9488Z" fill="#F3CF7A"/>
<path d="M57.8112 40.2263C57.6494 40.2875 57.5388 40.4056 57.5507 40.6507C57.7165 40.5894 57.827 40.4669 57.8112 40.2263Z" fill="#F3CF7A"/>
<path d="M57.6775 39.3731C57.2788 39.6794 57.8394 40.2875 57.6775 39.3731V39.3731Z" fill="#F3CF7A"/>
<path d="M57.551 38.3713C57.1128 38.7038 58.0208 38.9488 57.551 38.3713V38.3713Z" fill="#F3CF7A"/>
<path d="M57.6776 11.2813C57.6776 11.1894 57.6776 11.0844 57.6776 10.9925C57.5947 10.9925 57.496 10.9925 57.417 10.9925C57.417 11.0844 57.417 11.1894 57.417 11.2813C57.496 11.2813 57.5947 11.2813 57.6776 11.2813Z" fill="#F3CF7A"/>
<path d="M56.742 42.5056C56.742 42.4138 56.742 42.3044 56.742 42.2169C56.6591 42.2169 56.5644 42.2169 56.4814 42.2169C56.4814 42.3044 56.4814 42.3963 56.4814 42.5056C56.5644 42.5056 56.6591 42.5056 56.742 42.5056Z" fill="#F3CF7A"/>
<path d="M56.3423 36.3806C56.3423 36.2887 56.3423 36.1837 56.3423 36.0918C56.0541 36.0306 56.0818 36.2887 56.0818 36.5162C56.1923 36.4856 56.2081 36.3806 56.3423 36.3806Z" fill="#F3CF7A"/>
<path d="M56.2088 13.1319C55.7547 13.6481 56.5799 13.8494 56.2088 13.1319V13.1319Z" fill="#F3CF7A"/>
<path d="M55.5488 13.5606C56.0423 13.1187 55.1382 13.0706 55.5488 13.5606V13.5606Z" fill="#F3CF7A"/>
<path d="M55.5488 12.6944C56.0423 12.2656 55.1382 12.2219 55.5488 12.6944V12.6944Z" fill="#F3CF7A"/>
<path d="M55.411 37.5181C54.9846 37.855 55.8769 38.0956 55.411 37.5181V37.5181Z" fill="#F3CF7A"/>
<path d="M54.8784 43.5075C55.139 43.5687 55.0679 42.8512 54.7402 43.0831C54.7402 43.1706 54.7402 43.2625 54.7402 43.3719C54.8626 43.3412 54.8784 43.4156 54.8784 43.5075Z" fill="#F3CF7A"/>
<path d="M54.8783 41.6525C55.3718 41.2281 54.4796 41.1669 54.8783 41.6525V41.6525Z" fill="#F3CF7A"/>
<path d="M54.4793 39.7975C54.4793 39.71 54.4793 39.6006 54.4793 39.5087C54.3964 39.5087 54.3017 39.5087 54.2188 39.5087C54.2188 39.6006 54.2188 39.71 54.2188 39.7975C54.3017 39.7975 54.3964 39.7975 54.4793 39.7975Z" fill="#F3CF7A"/>
<path d="M54.0805 43.9319C54.5739 43.5075 53.6817 43.4594 54.0805 43.9319V43.9319Z" fill="#F3CF7A"/>
<path d="M54.2186 42.93C54.2186 42.8381 54.2186 42.7462 54.2186 42.6412C54.1357 42.6412 54.0409 42.6412 53.958 42.6412C53.958 42.7331 53.958 42.8381 53.958 42.93C54.0409 42.93 54.1199 42.93 54.2186 42.93Z" fill="#F3CF7A"/>
<path d="M53.9429 33.8125C54.1481 33.8563 54.1363 33.0381 53.8047 33.3881C53.86 33.3269 53.9586 33.8125 53.9429 33.8125Z" fill="#F3CF7A"/>
<path d="M53.9422 19.6813C53.9856 19.4538 53.8198 19.4406 53.804 19.2569C53.5593 19.1956 53.6145 19.9088 53.9422 19.6813Z" fill="#F3CF7A"/>
<path d="M53.2827 43.5075C53.5432 43.5687 53.4761 42.8512 53.1484 43.0831C53.1484 43.1706 53.1484 43.2625 53.1484 43.3719C53.255 43.3412 53.2708 43.4156 53.2827 43.5075Z" fill="#F3CF7A"/>
<path d="M53.2829 40.375C53.121 40.4362 53.0105 40.5587 53.0224 40.8037C53.1763 40.7425 53.2829 40.62 53.2829 40.375Z" fill="#F3CF7A"/>
<path d="M53.1489 39.7975C53.4095 39.8588 53.3384 39.1456 53.0107 39.3731C53.0107 39.465 53.0107 39.57 53.0107 39.6619C53.1213 39.6313 53.1331 39.71 53.1489 39.7975Z" fill="#F3CF7A"/>
<path d="M53.0105 39.22C53.0105 39.1325 53.0105 39.0231 53.0105 38.9313C52.9158 38.9313 52.8329 38.9313 52.75 38.9313C52.75 39.0231 52.75 39.115 52.75 39.22C52.8329 39.22 52.9276 39.22 53.0105 39.22Z" fill="#F3CF7A"/>
<path d="M52.888 34.2369C52.7222 34.2981 52.6117 34.4206 52.6275 34.6656C52.7775 34.6044 52.888 34.4819 52.888 34.2369Z" fill="#F3CF7A"/>
<path d="M52.8881 20.3944C52.5288 19.9088 52.5565 21.1425 52.8881 20.3944V20.3944Z" fill="#F3CF7A"/>
<path d="M52.3514 30.9556C52.3514 30.8637 52.3514 30.7719 52.3514 30.6669C52.2685 30.6669 52.1737 30.6669 52.0908 30.6669C52.0908 30.7587 52.0908 30.8637 52.0908 30.9556C52.1737 30.9556 52.2566 30.9556 52.3514 30.9556Z" fill="#F3CF7A"/>
<path d="M51.5424 40.8037C52.0359 40.3619 51.1436 40.3137 51.5424 40.8037V40.8037Z" fill="#F3CF7A"/>
<path d="M51.1434 1.72186C51.1434 1.62999 51.1434 1.52498 51.1434 1.43311C51.0605 1.43311 50.9657 1.43311 50.8828 1.43311C50.8828 1.52498 50.8828 1.62999 50.8828 1.72186C50.9657 1.72186 51.0605 1.72186 51.1434 1.72186Z" fill="#F3CF7A"/>
<path d="M50.8831 19.1212C50.8555 18.9987 50.745 18.9812 50.745 18.8325C50.6384 18.8631 50.6107 18.9681 50.4844 18.9681C50.512 19.0906 50.6226 19.1037 50.6226 19.2569C50.7173 19.2262 50.745 19.1212 50.8831 19.1212Z" fill="#F3CF7A"/>
<path d="M50.7449 18.255C50.7449 18.1631 50.7449 18.0581 50.7449 17.9662C50.662 17.9662 50.5673 17.9662 50.4844 17.9662C50.4844 18.0581 50.4844 18.1631 50.4844 18.255C50.5673 18.255 50.662 18.255 50.7449 18.255Z" fill="#F3CF7A"/>
<path d="M50.4838 30.1069C50.7997 30.0281 50.5667 29.4375 50.3496 29.8181C50.3733 29.9231 50.4838 29.9537 50.4838 30.1069Z" fill="#F3CF7A"/>
<path d="M49.9515 17.4019C49.7857 17.4631 49.6752 17.5856 49.691 17.8306C49.9633 17.905 49.9357 17.6294 49.9515 17.4019Z" fill="#F3CF7A"/>
<path d="M49.951 16.8419C49.951 16.75 49.951 16.645 49.951 16.5531C49.8681 16.5531 49.7733 16.5531 49.6904 16.5531C49.6904 16.645 49.6904 16.7325 49.6904 16.8419C49.7733 16.8419 49.8523 16.8419 49.951 16.8419Z" fill="#F3CF7A"/>
<path d="M49.8133 9.40874C49.8133 9.32125 49.8133 9.22938 49.8133 9.12439C49.7304 9.12439 49.6356 9.12439 49.5527 9.12439C49.5527 9.21188 49.5527 9.30375 49.5527 9.40874C49.6356 9.40874 49.7304 9.40874 49.8133 9.40874Z" fill="#F3CF7A"/>
<path d="M48.6209 22.9625C48.6209 22.875 48.6209 22.7656 48.6209 22.6737C48.538 22.6737 48.4393 22.6737 48.3604 22.6737C48.3604 22.7656 48.3604 22.8575 48.3604 22.9625C48.4393 22.9625 48.5222 22.9625 48.6209 22.9625Z" fill="#F3CF7A"/>
<path d="M47.9456 21.6894C47.5232 22.0219 48.4115 22.2669 47.9456 21.6894V21.6894Z" fill="#F3CF7A"/>
<path d="M48.0559 39.3731C48.4112 39.0537 47.7401 38.905 48.0559 39.3731V39.3731Z" fill="#F3CF7A"/>
<path d="M47.8114 25.395C47.8114 25.3031 47.8114 25.1981 47.8114 25.1062C47.7285 25.1062 47.6298 25.1062 47.5469 25.1062C47.5469 25.1981 47.5469 25.29 47.5469 25.395C47.6298 25.395 47.7285 25.395 47.8114 25.395Z" fill="#F3CF7A"/>
<path d="M47.6728 34.2369C47.7122 34.0094 47.5464 33.9963 47.5346 33.8125C47.2859 33.7512 47.3569 34.4513 47.6728 34.2369Z" fill="#F3CF7A"/>
<path d="M47.5465 23.54C48.0439 23.1025 47.1359 23.0544 47.5465 23.54V23.54Z" fill="#F3CF7A"/>
<path d="M47.4129 22.9625C47.4129 22.875 47.4129 22.7656 47.4129 22.6737C47.33 22.6737 47.2352 22.6737 47.1523 22.6737C47.1523 22.7656 47.1523 22.8575 47.1523 22.9625C47.2352 22.9625 47.33 22.9625 47.4129 22.9625Z" fill="#F3CF7A"/>
<path d="M47.2742 34.6656C47.2742 34.5738 47.2742 34.4644 47.2742 34.3769C47.1913 34.3769 47.0966 34.3769 47.0137 34.3769C47.0137 34.4644 47.0137 34.5563 47.0137 34.6656C47.0966 34.6656 47.1913 34.6656 47.2742 34.6656Z" fill="#F3CF7A"/>
<path d="M47.1522 19.6812C47.1522 19.5894 47.1522 19.4844 47.1522 19.3925C47.0693 19.3925 46.9706 19.3925 46.8916 19.3925C46.8916 19.4844 46.8916 19.5762 46.8916 19.6812C46.9706 19.6812 47.0535 19.6812 47.1522 19.6812Z" fill="#F3CF7A"/>
<path d="M47.1522 15.9756C47.1522 15.8838 47.1522 15.7919 47.1522 15.6869C46.864 15.6256 46.9034 15.8838 46.8916 16.1113C46.9864 16.0981 47.014 15.9756 47.1522 15.9756Z" fill="#F3CF7A"/>
<path d="M47.0134 28.6762C47.0529 28.4487 46.891 28.4356 46.8752 28.2519C46.6147 28.1906 46.6857 28.8906 47.0134 28.6762Z" fill="#F3CF7A"/>
<path d="M47.0135 27.6744C47.0135 27.5825 47.0135 27.4775 47.0135 27.3856C46.9187 27.3856 46.8358 27.3856 46.7529 27.3856C46.7529 27.4775 46.7529 27.5825 46.7529 27.6744C46.8358 27.6744 46.9187 27.6744 47.0135 27.6744Z" fill="#F3CF7A"/>
<path d="M46.8758 23.9687C46.8758 23.8769 46.8758 23.785 46.8758 23.68C46.7929 23.68 46.6981 23.68 46.6152 23.68C46.6152 23.7675 46.6152 23.8769 46.6152 23.9687C46.6981 23.9687 46.7929 23.9687 46.8758 23.9687Z" fill="#F3CF7A"/>
<path d="M46.8757 21.6894C46.7099 21.7506 46.6033 21.8687 46.6152 22.1137C46.8915 22.175 46.8639 21.9169 46.8757 21.6894Z" fill="#F3CF7A"/>
<path d="M46.7377 20.2587C46.9983 20.32 46.9312 19.6069 46.6035 19.8344C46.6035 19.9263 46.6035 20.0312 46.6035 20.1231C46.7259 20.0925 46.7377 20.1669 46.7377 20.2587Z" fill="#F3CF7A"/>
<path d="M46.4774 25.395C46.9709 24.9531 46.0826 24.9094 46.4774 25.395V25.395Z" fill="#F3CF7A"/>
<path d="M46.3426 27.6744C46.3426 27.5825 46.3426 27.4775 46.3426 27.3856C46.2597 27.3856 46.161 27.3856 46.082 27.3856C46.082 27.4775 46.082 27.5825 46.082 27.6744C46.161 27.6744 46.2597 27.6744 46.3426 27.6744Z" fill="#F3CF7A"/>
<path d="M46.2163 26.8256C46.4768 26.8825 46.4097 26.1694 46.082 26.3969C46.082 26.4887 46.082 26.5806 46.082 26.6856C46.1886 26.655 46.2044 26.7337 46.2163 26.8256Z" fill="#F3CF7A"/>
<path d="M46.3426 22.1138C46.382 21.8862 46.2162 21.8687 46.2044 21.6894C45.9557 21.6281 46.0109 22.3413 46.3426 22.1138Z" fill="#F3CF7A"/>
<path d="M46.3426 20.2588C46.3426 20.1669 46.3426 20.0619 46.3426 19.97C46.2597 19.97 46.161 19.97 46.082 19.97C46.082 20.0619 46.082 20.1669 46.082 20.2588C46.161 20.2588 46.2597 20.2588 46.3426 20.2588Z" fill="#F3CF7A"/>
<path d="M46.0824 26.8257C45.9166 26.8825 45.806 27.005 45.8218 27.25C46.0942 27.3112 46.0666 27.0356 46.0824 26.8257Z" fill="#F3CF7A"/>
<path d="M45.9437 25.395C46.4372 24.9531 45.545 24.9094 45.9437 25.395V25.395Z" fill="#F3CF7A"/>
<path d="M46.0826 22.5381C46.0826 22.4463 46.0826 22.3544 46.0826 22.2494C45.7944 22.1881 45.822 22.4463 45.822 22.6738C45.9168 22.6606 45.9444 22.5381 46.0826 22.5381Z" fill="#F3CF7A"/>
<path d="M45.9438 20.8231C46.2044 20.8844 46.1333 20.1669 45.8057 20.3944C45.8057 20.4862 45.8057 20.5956 45.8057 20.6831C45.928 20.6525 45.9438 20.7444 45.9438 20.8231Z" fill="#F3CF7A"/>
<path d="M45.8061 34.8013C45.3797 35.1513 45.9837 35.5144 45.8061 34.8013V34.8013Z" fill="#F3CF7A"/>
<path d="M45.8061 16.1287C46.0667 16.1856 45.9996 15.4725 45.668 15.7C45.668 15.7919 45.668 15.8969 45.668 15.9887C45.7943 15.9581 45.8061 16.0369 45.8061 16.1287Z" fill="#F3CF7A"/>
<path d="M45.683 28.6325C45.3395 28.1469 45.2843 29.2712 45.6001 28.5231L45.683 28.6325Z" fill="#F3CF7A"/>
<path d="M45.806 21.6894C45.5059 21.6106 45.6125 21.9606 45.4072 21.9781C45.4625 22.3281 45.9284 21.9781 45.806 21.6894Z" fill="#F3CF7A"/>
<path d="M45.5453 19.41C46.0388 18.9681 45.1465 18.9244 45.5453 19.41V19.41Z" fill="#F3CF7A"/>
<path d="M45.5456 25.395C45.5851 25.1675 45.4232 25.15 45.4074 24.9706C45.1469 24.9094 45.218 25.6094 45.5456 25.395Z" fill="#F3CF7A"/>
<path d="M45.5448 24.3931C45.5448 24.3013 45.5448 24.1962 45.5448 24.1044C45.4618 24.1044 45.3671 24.1044 45.2842 24.1044C45.2842 24.1962 45.2842 24.3013 45.2842 24.3931C45.3671 24.3931 45.4618 24.3931 45.5448 24.3931Z" fill="#F3CF7A"/>
<path d="M45.1465 26.8256C45.64 26.3837 44.7359 26.3356 45.1465 26.8256V26.8256Z" fill="#F3CF7A"/>
<path d="M45.285 25.8194C45.285 25.7275 45.285 25.6225 45.285 25.5306C45.2021 25.5306 45.1073 25.5306 45.0244 25.5306C45.0244 25.6225 45.0244 25.7144 45.0244 25.8194C45.1073 25.8194 45.1902 25.8194 45.285 25.8194Z" fill="#F3CF7A"/>
<path d="M45.2849 10.5638C45.2849 10.4762 45.2849 10.3669 45.2849 10.275C45.202 10.275 45.1072 10.275 45.0243 10.275C45.0243 10.3669 45.0243 10.4762 45.0243 10.5638C45.0086 10.415 45.0915 10.415 45.2849 10.5638Z" fill="#F3CF7A"/>
<path d="M45.1462 20.2587C44.9844 20.0181 44.9844 19.2875 44.6133 19.6812C44.9133 19.7425 44.7357 20.3069 45.1462 20.2587Z" fill="#F3CF7A"/>
<path d="M45.0085 27.25C45.4625 27.0969 45.4349 27.005 45.0085 26.9612C44.9296 26.9612 45.0914 26.9612 45.0085 26.9612C45.0085 27.0531 44.9414 27.11 44.9414 27.2194C45.0362 27.2194 44.9296 27.25 45.0085 27.25Z" fill="#F3CF7A"/>
<path d="M45.0085 25.9594C44.8466 26.0163 44.7361 26.1388 44.7479 26.3837C44.9137 26.3225 45.0243 26.2175 45.0085 25.9594Z" fill="#F3CF7A"/>
<path d="M44.7477 23.54C45.2451 23.1025 44.3371 23.0544 44.7477 23.54V23.54Z" fill="#F3CF7A"/>
<path d="M44.7482 28.6762C44.7482 28.5844 44.7482 28.4794 44.7482 28.3875C44.46 28.3263 44.6258 28.5844 44.614 28.8119C44.7206 28.7856 44.614 28.6762 44.7482 28.6762Z" fill="#F3CF7A"/>
<path d="M44.6131 23.9687C44.6131 23.8769 44.6131 23.785 44.6131 23.68C44.5302 23.68 44.4315 23.68 44.3525 23.68C44.3525 23.7675 44.5026 23.8769 44.5026 23.9687C44.5855 23.9687 44.5302 23.9687 44.6131 23.9687Z" fill="#F3CF7A"/>
<path d="M44.6131 19.41C44.6131 19.3181 44.6131 19.2131 44.6131 19.1212C44.5302 19.1212 44.4315 19.1212 44.3525 19.1212C44.3525 19.2131 44.3525 19.3006 44.3525 19.41C44.4315 19.41 44.5302 19.41 44.6131 19.41Z" fill="#F3CF7A"/>
<path d="M44.4751 18.5437C44.6804 18.5875 44.6686 17.7694 44.3369 18.1194C44.3922 18.0581 44.4869 18.5437 44.4751 18.5437Z" fill="#F3CF7A"/>
<path d="M44.3533 14.2738C44.3533 14.1819 44.3533 14.09 44.3533 13.985C44.2704 13.985 44.1717 13.985 44.0928 13.985C44.0928 14.0769 44.0928 14.1688 44.0928 14.2738C44.1717 14.2738 44.2546 14.2738 44.3533 14.2738Z" fill="#F3CF7A"/>
<path d="M44.077 24.5463C43.9112 24.6031 44.0375 24.7738 44.0494 25.0144C44.381 25.045 44.1875 24.7563 44.077 24.5463Z" fill="#F3CF7A"/>
<path d="M43.9382 19.1212C43.5158 19.4537 44.4199 19.6988 43.9382 19.1212V19.1212Z" fill="#F3CF7A"/>
<path d="M43.678 25.9594C43.5161 26.0163 43.5438 26.1388 43.5438 26.3837C43.7056 26.3225 43.678 26.2175 43.678 25.9594Z" fill="#F3CF7A"/>
<path d="M43.5671 26.9612C43.8316 27.0225 43.8829 26.2613 43.5553 26.4888C43.5553 26.5806 43.5 26.6113 43.5 26.7031C43.6105 26.6856 43.5553 26.8694 43.5671 26.9612Z" fill="#F3CF7A"/>
<path d="M43.3343 24.4981C44.0765 23.8463 43.2948 23.8288 43.2119 24.5156L43.3343 24.4981Z" fill="#F3CF7A"/>
<path d="M43.2831 20.8231C43.2831 20.7312 43.2831 20.6394 43.2831 20.5344C43.2002 20.5344 43.1015 20.5344 43.0186 20.5344C43.0186 20.6262 43.0186 20.7312 43.0186 20.8231C43.1015 20.8231 43.1844 20.8231 43.2831 20.8231Z" fill="#F3CF7A"/>
<path d="M78.751 8.00001C79.4537 8.17942 78.3957 7.89062 78.751 8.00001V8.00001Z" fill="#F3CF7A"/>
<path d="M78.8894 2.57498C78.6999 2.19435 78.3841 2.87685 78.3564 3.15248C78.6999 3.13498 78.5459 2.5881 78.8894 2.57498Z" fill="#F3CF7A"/>
<path d="M78.0803 15.4112C77.9145 14.9737 77.6815 15.5644 77.9421 15.7Z" fill="#F3CF7A"/>
<path d="M76.8877 8.42438C76.8601 7.95187 76.9272 9.21189 76.8877 8.42438V8.42438Z" fill="#F3CF7A"/>
<path d="M75.4188 3.42377C75.1424 3.89627 76.0781 4.12377 75.4188 3.42377V3.42377Z" fill="#F3CF7A"/>
<path d="M74.8821 21.6894C75.0598 21.6588 74.815 20.915 74.4834 20.9719C74.6097 21.2169 74.7992 21.3831 74.8821 21.6894Z" fill="#F3CF7A"/>
<path d="M73.9509 19.41C74.322 18.8937 73.2244 18.0713 73.9509 19.41V19.41Z" fill="#F3CF7A"/>
<path d="M73.6904 20.6831C74.0457 20.5475 73.5522 20.1844 73.5522 19.97C73.114 20.1844 73.8286 20.32 73.6904 20.6831Z" fill="#F3CF7A"/>
<path d="M73.552 15.84C73.7297 16.2775 73.7297 15.4287 73.4139 15.5512C73.1533 15.2144 73.4849 15.7175 73.552 15.84Z" fill="#F3CF7A"/>
<path d="M72.0826 29.665C71.6721 28.755 71.1075 29.1794 72.0826 29.665Z" fill="#F3CF7A"/>
<path d="M71.1512 20.9719C71.396 21.2913 70.48 20.1231 71.1512 20.9719V20.9719Z" fill="#F3CF7A"/>
<path d="M71.1511 19.5456C71.5221 19.0294 70.4247 18.2244 71.1511 19.5456V19.5456Z" fill="#F3CF7A"/>
<path d="M71.1512 27.3856C71.0801 27.2806 71.013 27.1581 71.013 26.9612C70.863 27.2325 70.6853 27.46 70.6143 27.81C70.8472 27.8581 70.8906 27.6744 70.7524 27.6744C70.8077 27.5081 70.9182 27.3856 71.1512 27.3856Z" fill="#F3CF7A"/>
<path d="M70.6148 20.1231C70.9188 20.7006 70.5596 19.7906 70.4806 19.6987C70.2872 19.4231 70.5872 20.0619 70.6148 20.1231Z" fill="#F3CF7A"/>
<path d="M70.0818 32.0975C70.0818 31.9575 70.0818 31.8087 70.0818 31.6687C69.6949 31.7475 69.6949 32.2156 69.5449 32.5219C70.0542 32.7319 69.5726 31.8831 70.0818 32.0975Z" fill="#F3CF7A"/>
<path d="M70.0816 30.2425C70.0816 30.1506 70.0816 30.0587 70.0816 29.9537C69.9711 29.9844 69.9553 29.8925 69.9434 29.8181C69.821 30.1375 69.3789 30.47 69.6829 30.82C69.8329 30.7894 69.75 30.6844 69.6829 30.6844C69.6552 30.365 69.7934 30.2119 70.0816 30.2425Z" fill="#F3CF7A"/>
<path d="M69.8213 29.2407C70.2161 28.4969 69.2014 30.365 69.8213 29.2407V29.2407Z" fill="#F3CF7A"/>
<path d="M69.2842 32.0975C69.5605 31.9575 69.6947 31.6687 69.6829 31.2444C69.3947 31.3056 69.4224 31.0475 69.4224 30.82C69.2171 31.3494 69.6276 31.4106 69.2842 32.0975Z" fill="#F3CF7A"/>
<path d="M69.1457 22.6738C69.6273 22.7963 69.1339 21.9606 68.8852 21.9606C68.7904 22.4025 69.2444 22.2494 69.1457 22.6738Z" fill="#F3CF7A"/>
<path d="M69.1463 31.2444C68.7909 31.2925 68.9133 31.8394 68.6133 31.9575C68.8581 32.3381 69.0515 31.4719 69.1463 31.2444Z" fill="#F3CF7A"/>
<path d="M69.0115 30.82C69.1892 30.7719 69.1181 30.47 69.1458 30.2425C68.8299 30.47 68.7628 30.9731 68.4746 31.2444C68.5299 31.4588 68.6404 31.1831 68.8734 31.2444C68.8457 31.0606 68.901 30.365 69.0115 30.82Z" fill="#F3CF7A"/>
<path d="M69.0119 27.81C69.1738 27.6437 68.7356 27.1581 68.475 26.8081C68.2974 26.5806 68.475 26.5938 68.6132 26.9438C68.7632 27.3419 68.6527 27.4294 69.0119 27.81Z" fill="#F3CF7A"/>
<path d="M69.0121 11.7056C69.4503 11.2638 68.5423 11.0669 68.6134 10.5638C68.2147 10.9444 69.0674 11.22 69.0121 11.7056Z" fill="#F3CF7A"/>
<path d="M69.012 23.8287C68.7357 23.8769 68.8857 24.3625 68.6133 24.4062C68.8462 24.8481 68.9844 24.0431 69.012 23.8287Z" fill="#F3CF7A"/>
<path d="M68.6132 13.5606C68.9291 13.5125 68.4632 13.18 68.475 12.9831C68.0763 13.1188 68.6409 13.3594 68.6132 13.5606Z" fill="#F3CF7A"/>
<path d="M68.2138 20.2588C68.8179 20.2281 67.7045 19.2262 68.2138 20.2588V20.2588Z" fill="#F3CF7A"/>
<path d="M68.2137 25.5306C68.6243 25.7275 67.8979 25.1369 67.9531 24.8175C67.6531 24.485 67.9926 25.2594 67.9531 25.5306C68.0637 25.4387 68.1861 25.3644 68.2137 25.5306Z" fill="#F3CF7A"/>
<path d="M67.954 17.6906C68.0764 17.2356 67.7488 17.2531 67.5553 17.1131C67.35 16.3694 67.5435 17.7825 67.954 17.6906Z" fill="#F3CF7A"/>
<path d="M67.6769 31.2444C68.0085 30.9556 67.1005 31.2444 67.2821 31.6687C67.7598 31.8831 67.365 31.1831 67.6769 31.2444Z" fill="#F3CF7A"/>
<path d="M67.4163 24.8175C67.1281 24.9531 66.7728 25.395 67.0215 25.6706C67.0333 25.4694 67.2386 25.2113 67.4163 24.8175Z" fill="#F3CF7A"/>
<path d="M67.1444 15.84C67.2944 15.8094 67.2115 15.7 67.1444 15.7C67.3378 15.2931 67.2391 15.5337 66.8838 15.5644C66.9114 15.7 67.1444 15.6387 67.1444 15.84Z" fill="#F3CF7A"/>
<path d="M66.6235 20.1231C67.0775 20.7619 65.8971 19.1037 66.6235 20.1231V20.1231Z" fill="#F3CF7A"/>
<path d="M65.687 23.1156C65.1817 22.9012 65.1936 24.135 65.687 23.1156V23.1156Z" fill="#F3CF7A"/>
<path d="M64.8783 28.2519C65.5535 28.6325 64.9612 28.0375 64.8783 28.1163C64.7717 28.1906 64.7836 28.1906 64.8783 28.2519Z" fill="#F3CF7A"/>
<path d="M65.1549 27.81V27.95C65.5931 27.8887 64.4403 27.355 65.1549 27.81Z" fill="#F3CF7A"/>
<path d="M64.6181 22.8269C63.8798 23.3737 64.3022 23.8287 64.6181 22.8269V22.8269Z" fill="#F3CF7A"/>
<path d="M63.5478 12.13C63.7808 11.1894 63.2043 13.2849 63.5478 12.13V12.13Z" fill="#F3CF7A"/>
<path d="M61.0095 36.805C61.1595 36.7743 61.0806 36.6693 61.0095 36.6693C60.9819 36.5468 61.0648 36.5337 61.1477 36.5337C60.9819 36.0787 60.7489 36.6693 61.0095 36.805Z" fill="#F3CF7A"/>
<path d="M60.8866 25.5306C61.0524 24.7869 60.7919 25.9288 60.8866 25.5306V25.5306Z" fill="#F3CF7A"/>
<path d="M60.8869 3.28813C61.2699 3.16563 60.7092 2.92501 60.8869 2.57501C60.35 2.75439 60.9145 2.86376 60.8869 3.28813Z" fill="#F3CF7A"/>
<path d="M56.0818 42.0769C56.0818 42.0944 56.4687 42.0331 56.3423 41.9413C56.0699 41.7137 55.7936 42.4138 55.9475 42.5188C56.0976 42.5931 56.0423 42.1381 56.0818 42.0769Z" fill="#F3CF7A"/>
<path d="M55.8096 8.27124C55.6872 8.37624 55.6043 8.52936 55.5332 8.69561C55.6043 9.0631 55.8372 8.46811 55.8096 8.27124Z" fill="#F3CF7A"/>
<path d="M55.2728 39.7975C55.3004 39.7669 55.5215 39.8456 55.5333 39.7975C55.6597 39.5087 55.0832 39.6006 55.1385 39.9375C55.1898 40.2569 55.2451 39.8456 55.2728 39.7975Z" fill="#F3CF7A"/>
<path d="M54.0807 39.22V39.36C54.5189 39.2988 53.3661 38.765 54.0807 39.22Z" fill="#F3CF7A"/>
<path d="M53.6818 38.9487C53.7252 38.6906 53.1606 38.9312 53.283 39.2375C53.5712 39.3119 53.4765 38.9487 53.6818 38.9487Z" fill="#F3CF7A"/>
<path d="M52.2132 42.23C51.7197 42.0331 51.8145 43.6124 51.9526 42.7943C51.9526 42.5056 52.3119 42.6106 52.2132 42.23Z" fill="#F3CF7A"/>
<path d="M50.6104 11.8412C50.9104 11.7362 50.3735 11.3425 50.3498 11.1281C49.9353 11.3556 50.6894 11.5087 50.6104 11.8412Z" fill="#F3CF7A"/>
<path d="M50.3497 17.555C50.322 17.0825 50.3891 18.3469 50.3497 17.555V17.555Z" fill="#F3CF7A"/>
<path d="M49.9512 34.3769C49.9236 33.9175 49.9908 35.1819 49.9512 34.3769V34.3769Z" fill="#F3CF7A"/>
<path d="M49.8128 18.8325C49.9628 18.8018 49.8799 18.6925 49.8128 18.6925C49.7852 18.5744 49.8681 18.5569 49.951 18.5569C49.7733 18.1019 49.5523 18.71 49.8128 18.8325Z" fill="#F3CF7A"/>
<path d="M49.8129 15.1225C50.0458 15.1706 49.8248 14.5756 49.5524 14.6981C49.4694 15.0175 49.8011 14.895 49.8129 15.1225Z" fill="#F3CF7A"/>
<path d="M49.4147 29.665C50.0187 30.3475 48.483 28.6325 49.4147 29.665V29.665Z" fill="#F3CF7A"/>
<path d="M48.6207 23.8287V23.9687C49.059 23.89 47.9061 23.3737 48.6207 23.8287Z" fill="#F3CF7A"/>
<path d="M48.4826 15.9756C49.0313 15.7787 48.5102 15.6081 48.4826 15.2625C48.0838 15.3806 48.6484 15.6256 48.4826 15.9756Z" fill="#F3CF7A"/>
<path d="M47.6729 35.3787C47.9176 36.1662 48.3716 35.6806 47.6729 35.3787V35.3787Z" fill="#F3CF7A"/>
<path d="M47.2746 28.6763C47.5076 27.7356 46.9469 29.8313 47.2746 28.6763V28.6763Z" fill="#F3CF7A"/>
<path d="M47.2745 25.6837C47.6022 25.5919 47.0258 25.3031 47.1363 24.9706C46.7376 25.1369 47.235 25.5175 47.2745 25.6837Z" fill="#F3CF7A"/>
<path d="M47.1521 37.0937C47.0534 37.61 47.3416 37.7325 47.2469 37.2162C47.1087 37.05 46.9468 37.05 47.1521 37.0937Z" fill="#F3CF7A"/>
<path d="M47.0141 31.9575C47.6734 31.6863 46.7931 31.4719 46.876 30.9556C46.4101 31.275 47.1918 31.4588 47.0141 31.9575Z" fill="#F3CF7A"/>
<path d="M46.6147 31.6687C46.5476 32.0056 46.8082 32.2331 46.4766 32.8106C46.9858 32.7318 46.9306 31.8831 46.6147 31.6687Z" fill="#F3CF7A"/>
<path d="M46.615 27.81C46.3702 27.9762 46.3268 28.3569 46.082 28.5231C46.3268 28.9212 46.5045 28.055 46.615 27.81Z" fill="#F3CF7A"/>
<path d="M46.3428 23.9688C46.3704 23.5575 45.8888 23.6931 46.0822 23.1156C45.6282 23.1769 45.9835 23.9381 46.3428 23.9688Z" fill="#F3CF7A"/>
<path d="M46.0817 30.1069C45.983 29.1313 45.45 31.1087 45.8211 30.2425C45.8211 30.1069 45.9712 30.1375 46.0817 30.1069Z" fill="#F3CF7A"/>
<path d="M45.4508 27.7663C45.4508 27.6306 45.285 27.5212 45.285 27.3856C44.902 27.46 45.3679 27.9194 45.2178 28.2344C45.7113 28.4488 44.9415 27.5519 45.4508 27.7663Z" fill="#F3CF7A"/>
<path d="M44.6133 27.6438C44.4869 27.3856 44.4198 27.2631 44.3527 26.9612C44.0487 27.0969 44.3369 27.6438 44.6133 27.6438Z" fill="#F3CF7A"/>
<path d="M44.2143 26.3968C44.5302 26.4581 44.4473 25.4869 44.1709 25.8194C44.2696 26.2612 44.1196 25.9593 44.2143 26.3968Z" fill="#F3CF7A"/>
<path d="M44.6137 20.2588C44.7755 19.8037 44.1873 20.1538 44.3531 19.6812C44.0649 19.7294 44.3097 20.3638 44.6137 20.2588Z" fill="#F3CF7A"/>
<path d="M95.0639 80.2881C93.386 78.1444 91.4318 76.0356 90.8751 73.2663C90.3343 70.58 91.2186 67.8281 91.8187 65.155C95.4824 48.8538 88.084 40.0075 86.1692 29.8925C85.198 24.7388 85.5928 19.3794 84.823 14.1863C82.9003 1.19687 73.7965 -3.0075 64.2425 4.77125C54.7517 12.5019 56.3269 17.6731 33.1645 22.7569C27.444 18.4956 20.9694 15.4769 14.2145 13.9281C7.0372 12.2831 3.11297 15.1531 3.717 25.22C4.2697 34.4031 6.14891 43.4856 9.26382 52.0213C11.2259 57.3981 10.3455 58.2688 7.05693 62.0269C-4.47098 75.2 2.35891 97.4863 3.16824 102.929C3.31431 103.918 3.18403 105.243 4.43552 106.201C4.55001 106.289 5.32775 106.586 5.34749 106.643C1.02847 93.7544 -1.36002 67.6488 10.4798 63.7463C14.4553 62.4338 18.9125 64.3763 22.2604 66.6994C38.8219 78.2013 30.1957 96.5063 18.4901 92.1313C14.9528 90.81 12.1734 87.4806 10.8627 83.6175C10.5232 82.6156 9.51254 81.3556 8.87692 82.1606C7.88205 83.425 11.1904 93.0369 19.3547 94.45C22.517 94.9969 25.853 94.24 28.885 95.3731C33.6146 97.1319 36.2636 102.916 40.8314 105.138C45.0359 107.186 50.8749 105.934 53.4805 111.093C53.4805 111.093 53.2554 111.928 52.9988 113.07C52.8646 113.665 52.7975 114.251 52.5961 114.82C52.5093 115.074 52.4659 115.389 52.6238 115.594C52.7856 115.8 53.8753 116.268 54.1635 115.931C54.5464 115.485 54.499 115.061 55.0281 112.812C55.107 112.479 55.7229 109.924 55.9953 109.417C58.0087 105.685 60.9302 102.548 64.3965 100.501C76.4258 93.3781 85.0283 103.896 84.0137 112.786C84.7401 113.389 85.8731 112.86 86.2956 111.968C87.2628 109.933 85.5099 102.185 79.8328 97.5125C87.9971 81.6881 88.1629 80.6206 90.0026 80.1088C92.0714 79.5356 93.8913 82.1081 93.919 84.4663C93.9466 86.8244 92.8728 89.0031 92.2766 91.265C90.1843 99.1925 94.9533 108.507 102.178 110.603C102.972 110.808 103.662 110.743 104.136 110.086C104.365 109.767 104.488 109.364 104.492 108.958C104.649 98.5581 101.231 88.1413 95.0639 80.2838V80.2881ZM17.1597 40.3575C15.541 41.6963 14.1316 42.8119 12.209 39.3425C9.37041 34.215 9.04274 31.275 8.52161 28.8031C8.27289 27.6088 8.02023 26.3488 8.3479 25.1763C9.3033 21.755 14.1553 23.0544 16.0977 24.2881C17.3492 25.08 21.7945 27.2019 21.9801 32.3031C22.0945 35.5319 19.3113 38.5769 17.1597 40.3575ZM87.7444 73.7606C86.489 76.8188 85.8139 85.9844 72.6042 92.9494C62.5686 98.2431 58.0759 100.457 51.2341 100.124C43.1093 99.7263 32.5486 93.5663 31.6643 92.9406C31.1905 92.6081 30.3378 92.2275 30.8352 91.5363C31.0563 91.2344 31.38 91.0681 31.6169 90.7969C32.1459 90.1931 32.4973 89.4406 32.979 88.7931C34.8108 86.33 34.2739 82.445 33.4369 79.0675C32.6671 75.9831 31.9485 72.7719 29.9548 70.3306C29.3429 69.5781 28.8692 68.6681 28.202 67.9594C26.4965 66.1525 29.1495 66.7475 34.033 56.9519C36.1057 52.7913 37.8112 50.1838 38.5534 40.6813C38.7784 37.8288 39.1456 34.5038 38.206 31.765C37.7678 30.4788 37.1677 28.7594 36.3702 27.6963C34.4673 25.1588 39.5996 24.0038 40.8077 23.6363C45.9597 22.0569 51.3881 21.2913 52.6672 21.2913C53.3739 21.2913 53.7924 21.335 54.3924 20.7881C55.869 19.445 56.848 16.9994 58.1074 15.3675C60.5512 12.2044 63.2002 9.33875 66.4217 7.16438C68.4707 5.7775 71.5146 3.69938 74.0531 4.13688C80.8158 5.30938 85.2296 20.4075 81.8028 30.5575C81.5383 31.3363 81.4909 31.8131 81.9765 32.5306C87.4799 40.6244 88.8617 44.5225 89.7381 54.2569C90.3974 61.5981 88.9564 70.7988 87.7444 73.7606Z" fill="#A25016"/>
<path d="M27.1239 76.6831C27.5266 77.1206 28.6754 78.7 28.6478 79.33C28.6162 80.0912 27.9056 80.7606 27.2226 80.5112C26.6936 80.3187 24.538 78.3762 24.5499 76.2806C24.5538 75.3006 26.1014 75.5631 27.1239 76.6831Z" fill="#A25016"/>
<path d="M21.2458 83.0137C20.776 82.6419 20.6892 81.9112 20.4997 81.3775C19.8878 79.6538 18.8337 79.995 19.0903 78.9844C19.3982 77.7725 20.1444 78.1225 20.8629 78.7788C21.4274 79.295 21.9959 79.82 22.4065 80.4894C22.6394 80.87 23.4369 83.0181 22.5605 83.0881C22.1341 83.1187 21.6248 83.3112 21.2458 83.0137Z" fill="#A25016"/>
<path d="M16.1251 86.3432C15.0434 86.2994 15.8804 84.9038 14.167 82.3925C14.0169 82.1738 13.9775 81.3294 14.1354 81.1238C14.6407 80.4544 15.7264 81.6094 16.2159 82.2744C17.6451 84.2038 17.353 86.3913 16.1251 86.3432Z" fill="#A25016"/>
<path d="M63.7602 83.0225C63.4759 82.9525 63.2549 82.7512 62.9667 82.7075C61.7586 82.515 60.7835 84.3306 60.3768 85.3412C59.1609 88.3862 52.0941 87.9662 50.4794 85.2537C49.7767 84.0769 50.2465 82.5106 50.9413 82.2787C51.5019 82.0906 51.9994 82.6769 52.406 83.1406C53.843 84.7856 56.3223 85.6606 58.1581 84.2737C59.1332 83.5387 59.4096 82.5106 59.757 81.3425C60.3137 79.4656 59.5004 76.7837 59.5201 75.7294C59.5557 73.9706 54.5892 75.1694 53.9931 72.3519C53.8154 71.5119 54.2063 70.65 54.68 69.9631C57.7159 65.5662 63.7484 66.1 64.5537 68.2394C65.0749 69.6219 63.7089 71.5381 62.9548 73.24C62.2876 74.7581 62.2639 76.2587 62.5363 77.895C63.0654 81.0756 69.2399 81.3425 69.8676 78.6081C70.0729 77.7156 70.219 76.8056 70.1795 75.865C70.1282 74.5612 71.7547 74.5831 72.5246 74.8981C73.6734 75.3706 73.1049 77.2125 73.0536 78.2406C72.9588 80.1219 72.2403 80.1875 70.8388 81.6094C70.294 82.1606 69.836 82.7687 69.0662 82.9219C67.8858 83.1581 64.4827 83.2019 63.7563 83.0225H63.7602Z" fill="#A25016"/>
<path d="M72.7346 27.5432C71.3529 27.1932 70.4804 26.6288 65.7429 23.96C64.0176 22.9932 60.5553 22.5294 63.4018 17.7519C64.9612 15.1313 67.0181 12.445 69.4894 10.8525C71.1199 9.8069 73.3742 9.0019 75.2021 9.88565C76.3983 10.4632 76.9036 12.0163 77.1563 13.3244C77.4958 15.1094 77.9222 16.8813 78.0209 18.71C78.2893 23.6669 77.1602 28.6632 72.7346 27.5432ZM72.4622 12.3094C70.0895 12.0075 68.0169 15.6913 66.7654 17.4238C65.3362 19.4013 66.3469 19.8475 67.9892 21.2782C70.0777 23.0982 73.4137 24.5857 74.1835 24.7125C75.0323 24.8525 75.0205 24.2969 75.0205 23.4744C75.0244 21.2825 74.7757 19.0907 74.298 16.9644C74.0493 15.8444 73.5834 12.4494 72.4622 12.3094Z" fill="#A25016"/>
<path d="M72.7781 55.1144C70.5909 56.1731 70.8712 57.7919 70.0737 59.1175C69.0117 60.8894 65.2138 57.1881 70.5159 53.955C71.9016 53.1106 72.8254 51.4919 75.1863 52.4063C78.4986 53.6881 78.4275 56.0856 76.9234 56.4138C74.9889 56.8338 74.8783 54.0994 72.7781 55.1144Z" fill="#A25016"/>
<path d="M38.5023 68.2569C38.3207 68.55 38.2576 68.9569 38.0404 69.2281C37.8075 69.5212 37.2035 69.775 36.8639 69.6044C35.9243 69.1319 35.7072 68.41 36.1573 67.4081C38.0009 63.3394 40.1328 62.6875 44.1676 63.65C44.9098 63.8294 45.6323 64.245 45.952 65.1681C46.2639 66.0737 45.1388 66.5462 44.4913 66.4675C43.4688 66.345 41.1514 63.9475 38.5023 68.2569Z" fill="#A25016"/>
<path d="M38.7983 83.7531C38.4391 84.3438 37.5271 84.7156 37.4244 84.7244C36.7809 84.7813 36.248 83.7488 36.3506 83.1406C36.7257 80.9444 40.4091 79.4569 41.7 80.7125C42.6594 81.6488 42.6633 83.2106 40.6301 83.1888C39.8327 83.18 39.3115 82.9175 38.7983 83.7531Z" fill="#A25016"/>
<path d="M43.9065 87.4369C43.8947 88.1675 43.3143 88.4519 42.7498 88.5744C42.0865 88.7187 41.5733 88.7231 41.2101 89.4712C40.9416 90.0137 40.3692 90.4381 39.852 90.6262C38.6242 91.0725 37.6807 90.0137 38.186 88.9637C38.3321 88.6619 38.5571 88.4169 38.7742 88.1719C39.4533 87.415 40.4047 85.735 41.4825 85.9187C42.1339 86.0325 42.7774 86.0981 43.3696 86.4481C43.8631 86.7412 43.9105 86.8287 43.9065 87.4369Z" fill="#A25016"/>
<path d="M79.7577 64.1269C79.059 64.4156 78.3799 65.1681 77.5825 65.0325C76.9982 64.9362 76.4968 64.035 76.5955 63.4006C76.6981 62.7619 77.7522 62.4556 78.2062 62.2456C78.8971 61.935 81.6409 60.8456 82.545 60.9375C83.3266 61.0119 83.2161 61.9962 83.0463 62.8625C83.0306 62.9544 82.9674 63.0637 82.9003 63.1031C82.4344 63.37 82.0673 63.6762 81.5382 63.79C80.95 63.9212 80.3302 63.895 79.7577 64.1269Z" fill="#A25016"/>
<path d="M40.7325 74.3775C41.3918 74.4607 41.5141 75.4232 41.3957 75.9963C41.2299 76.8013 40.5035 76.9413 39.8994 77.2475C39.4375 77.4794 36.8201 78.7963 36.2476 78.8531C34.854 78.9975 35.537 77.6982 36.0739 77.09C37.3333 75.6594 40.1679 74.3075 40.7325 74.3775Z" fill="#A25016"/>
<path d="M81.1548 75.5019C80.4047 75.6987 79.9901 75.4056 79.7177 74.5919C79.5795 74.1894 79.8006 73.7212 80.1204 73.5156C81.0679 72.9119 87.1832 73.6119 85.7067 75.3531C83.6854 77.7419 83.7407 74.8194 81.1548 75.5019Z" fill="#A25016"/>
<path d="M82.7937 68.2306C81.9607 68.0512 81.1119 68.6462 80.2039 68.9568C79.7657 69.1056 79.3669 68.9612 79.0156 68.8037C78.6563 68.6418 78.8498 68.0162 79.0037 67.745C79.2445 67.325 79.6986 67.1675 80.1091 67.0537C84.1044 65.9425 84.1083 65.6975 84.7005 66.0256C85.1782 66.4631 85.2927 67.0537 85.1348 67.6662C85.0716 67.9068 84.7676 68.0031 84.5071 68.06C83.9978 68.1693 83.4846 68.1781 82.7937 68.2306Z" fill="#A25016"/>
</svg>
